<svg width="26" height="28" viewBox="0 0 26 28" fill="none" xmlns="http://www.w3.org/2000/svg">
<path d="M5.5 1.5L1.75 6.5V24C1.75 24.663 2.01339 25.2989 2.48223 25.7678C2.95107 26.2366 3.58696 26.5 4.25 26.5H21.75C22.413 26.5 23.0489 26.2366 23.5178 25.7678C23.9866 25.2989 24.25 24.663 24.25 24V6.5L20.5 1.5H5.5Z" stroke="white" stroke-width="2" stroke-linecap="round" stroke-linejoin="round"/>
<path d="M1.75 6.5H24.25" stroke="white" stroke-width="2" stroke-linecap="round" stroke-linejoin="round"/>
<path d="M18 11.5C18 12.8261 17.4732 14.0979 16.5355 15.0355C15.5979 15.9732 14.3261 16.5 13 16.5C11.6739 16.5 10.4021 15.9732 9.46447 15.0355C8.52678 14.0979 8 12.8261 8 11.5" stroke="white" stroke-width="2" stroke-linecap="round" stroke-linejoin="round"/>
</svg>
